<svg id="visual" viewBox="0 0 250 250" width="250" height="250" xmlns="http://www.w3.org/2000/svg" xmlns:xlink="http://www.w3.org/1999/xlink" version="1.1"><rect x="0" y="0" width="250" height="250" fill="#000000"></rect><path d="M0 117L4.7 132.7C9.3 148.3 18.7 179.7 28 183.2C37.3 186.7 46.7 162.3 55.8 165.2C65 168 74 198 83.2 195.5C92.3 193 101.7 158 111 145.3C120.3 132.7 129.7 142.3 139 156C148.3 169.7 157.7 187.3 166.8 181C176 174.7 185 144.3 194.2 131.8C203.3 119.3 212.7 124.7 222 129.8C231.3 135 240.7 140 245.3 142.5L250 145L250 251L245.3 251C240.7 251 231.3 251 222 251C212.7 251 203.3 251 194.2 251C185 251 176 251 166.8 251C157.7 251 148.3 251 139 251C129.7 251 120.3 251 111 251C101.7 251 92.3 251 83.2 251C74 251 65 251 55.8 251C46.7 251 37.3 251 28 251C18.7 251 9.3 251 4.7 251L0 251Z" fill="#ffff00" stroke-linecap="round" stroke-linejoin="miter"></path></svg>